<svg xmlns="http://www.w3.org/2000/svg" xmlns:xlink="http://www.w3.org/1999/xlink" width="50" zoomAndPan="magnify" viewBox="0 0 37.5 37.499999" height="50" preserveAspectRatio="xMidYMid meet" version="1.0"><defs><clipPath id="5fc2cd72e0"><path d="M 26 2.917969 L 32.308594 2.917969 L 32.308594 9 L 26 9 Z M 26 2.917969 " clip-rule="nonzero"/></clipPath><clipPath id="ed5ebd8e95"><path d="M 8 2.917969 L 32.308594 2.917969 L 32.308594 34 L 8 34 Z M 8 2.917969 " clip-rule="nonzero"/></clipPath><clipPath id="e6cb8e008c"><path d="M 26 8 L 32.308594 8 L 32.308594 10 L 26 10 Z M 26 8 " clip-rule="nonzero"/></clipPath><clipPath id="1365f63e38"><path d="M 4.921875 4 L 24 4 L 24 13 L 4.921875 13 Z M 4.921875 4 " clip-rule="nonzero"/></clipPath></defs><g clip-path="url(#5fc2cd72e0)"><path fill="#ffaf36" d="M 26.21875 2.917969 L 32.304688 8.933594 L 26.21875 8.933594 Z M 26.21875 2.917969 " fill-opacity="1" fill-rule="nonzero"/></g><g clip-path="url(#ed5ebd8e95)"><path fill="#ff6d00" d="M 32.304688 8.933594 L 32.304688 34 L 8.984375 34 L 8.984375 2.917969 L 26.21875 2.917969 L 26.21875 8.933594 Z M 32.304688 8.933594 " fill-opacity="1" fill-rule="nonzero"/></g><path fill="#f54e00" d="M 9.996094 6.925781 L 9.996094 30.992188 C 9.996094 31.257812 10.046875 31.515625 10.152344 31.761719 C 10.253906 32.007812 10.402344 32.222656 10.589844 32.410156 C 10.78125 32.601562 11 32.746094 11.25 32.847656 C 11.496094 32.949219 11.757812 33 12.023438 33 L 29.261719 33 C 29.53125 33 29.789062 32.949219 30.039062 32.847656 C 30.285156 32.746094 30.503906 32.601562 30.695312 32.410156 C 30.886719 32.222656 31.03125 32.007812 31.136719 31.761719 C 31.238281 31.515625 31.289062 31.257812 31.289062 30.992188 L 31.289062 29.929688 C 9.996094 28.632812 9.996094 6.925781 9.996094 6.925781 Z M 9.996094 6.925781 " fill-opacity="1" fill-rule="nonzero"/><g clip-path="url(#e6cb8e008c)"><path fill="#f54e00" d="M 26.726562 8.933594 L 32.304688 8.933594 L 32.304688 9.9375 L 26.726562 9.9375 Z M 26.726562 8.933594 " fill-opacity="1" fill-rule="nonzero"/></g><g clip-path="url(#1365f63e38)"><path fill="#f54100" d="M 4.925781 4.421875 L 23.179688 4.421875 L 23.179688 12.441406 L 4.925781 12.441406 Z M 4.925781 4.421875 " fill-opacity="1" fill-rule="nonzero"/></g><path fill="#d63900" d="M 8.984375 12.441406 L 22.164062 12.441406 L 22.164062 13.945312 L 8.984375 13.945312 Z M 8.984375 12.441406 " fill-opacity="1" fill-rule="nonzero"/><path fill="#ffffff" d="M 20.136719 9.9375 L 20.136719 5.925781 L 19.121094 5.925781 L 19.121094 10.4375 C 19.121094 10.574219 19.171875 10.695312 19.269531 10.792969 C 19.371094 10.890625 19.488281 10.9375 19.628906 10.9375 L 21.65625 10.9375 L 21.65625 9.9375 Z M 20.136719 9.9375 " fill-opacity="1" fill-rule="nonzero"/><path fill="#ffffff" d="M 8.984375 7.929688 L 7.460938 7.929688 L 7.460938 5.925781 L 6.449219 5.925781 L 6.449219 10.9375 L 7.460938 10.9375 L 7.460938 8.933594 L 8.984375 8.933594 L 8.984375 10.9375 L 9.996094 10.9375 L 9.996094 5.925781 L 8.984375 5.925781 Z M 8.984375 7.929688 " fill-opacity="1" fill-rule="nonzero"/><path fill="#ffffff" d="M 10.503906 6.925781 L 11.519531 6.925781 L 11.519531 10.9375 L 12.53125 10.9375 L 12.53125 6.925781 L 13.546875 6.925781 L 13.546875 5.925781 L 10.503906 5.925781 Z M 10.503906 6.925781 " fill-opacity="1" fill-rule="nonzero"/><path fill="#ffffff" d="M 17.703125 5.933594 C 17.585938 5.910156 17.472656 5.925781 17.367188 5.980469 C 17.257812 6.035156 17.183594 6.117188 17.136719 6.226562 L 16.082031 8.664062 L 15.027344 6.226562 C 14.976562 6.117188 14.902344 6.035156 14.792969 5.980469 C 14.6875 5.925781 14.574219 5.910156 14.457031 5.933594 C 14.339844 5.957031 14.242188 6.015625 14.167969 6.109375 C 14.089844 6.203125 14.054688 6.308594 14.054688 6.425781 L 14.054688 10.9375 L 15.066406 10.9375 L 15.066406 8.867188 L 15.613281 10.132812 C 15.703125 10.335938 15.859375 10.4375 16.082031 10.4375 C 16.304688 10.4375 16.457031 10.335938 16.546875 10.132812 L 17.09375 8.867188 L 17.09375 10.9375 L 18.109375 10.9375 L 18.109375 6.425781 C 18.109375 6.308594 18.070312 6.203125 17.996094 6.109375 C 17.917969 6.015625 17.820312 5.957031 17.703125 5.933594 Z M 17.703125 5.933594 " fill-opacity="1" fill-rule="nonzero"/><path fill="#ffffff" d="M 15.066406 27.484375 L 11.011719 22.972656 L 15.066406 18.460938 L 17.09375 18.460938 L 13.039062 22.972656 L 17.09375 27.484375 Z M 15.066406 27.484375 " fill-opacity="1" fill-rule="nonzero"/><path fill="#ffffff" d="M 26.21875 27.484375 L 30.277344 22.972656 L 26.21875 18.460938 L 24.191406 18.460938 L 28.246094 22.972656 L 24.191406 27.484375 Z M 26.21875 27.484375 " fill-opacity="1" fill-rule="nonzero"/><path fill="#ffffff" d="M 18.617188 27.484375 L 21.148438 18.460938 L 22.671875 18.460938 L 20.136719 27.484375 Z M 18.617188 27.484375 " fill-opacity="1" fill-rule="nonzero"/><path fill="#d63900" d="M 11.011719 22.972656 L 14.164062 19.460938 L 14.054688 19.460938 L 9.996094 23.972656 L 14.054688 28.488281 L 16.082031 28.488281 L 15.179688 27.484375 L 15.066406 27.484375 Z M 11.011719 22.972656 " fill-opacity="1" fill-rule="nonzero"/><path fill="#d63900" d="M 28.246094 22.972656 L 25.09375 19.460938 L 23.179688 19.460938 L 27.234375 23.972656 L 23.179688 28.488281 L 25.207031 28.488281 L 26.109375 27.484375 L 24.191406 27.484375 Z M 28.246094 22.972656 " fill-opacity="1" fill-rule="nonzero"/><path fill="#d63900" d="M 20.867188 19.460938 L 20.136719 19.460938 L 17.601562 28.488281 L 19.121094 28.488281 L 19.40625 27.484375 L 18.617188 27.484375 Z M 20.867188 19.460938 " fill-opacity="1" fill-rule="nonzero"/><path fill="#d63900" d="M 19.121094 10.4375 L 19.121094 6.425781 L 18.617188 6.425781 L 18.617188 10.9375 C 18.617188 11.078125 18.664062 11.195312 18.765625 11.292969 C 18.863281 11.390625 18.984375 11.441406 19.121094 11.441406 L 21.148438 11.441406 L 21.148438 10.9375 L 19.628906 10.9375 C 19.488281 10.9375 19.371094 10.890625 19.269531 10.792969 C 19.171875 10.695312 19.121094 10.574219 19.121094 10.4375 Z M 19.121094 10.4375 " fill-opacity="1" fill-rule="nonzero"/><path fill="#d63900" d="M 8.476562 6.425781 L 8.984375 6.425781 L 8.984375 7.929688 L 8.476562 7.929688 Z M 8.476562 6.425781 " fill-opacity="1" fill-rule="nonzero"/><path fill="#d63900" d="M 6.449219 6.425781 L 5.941406 6.425781 L 5.941406 11.441406 L 6.957031 11.441406 L 6.957031 10.9375 L 6.449219 10.9375 Z M 6.449219 6.425781 " fill-opacity="1" fill-rule="nonzero"/><path fill="#d63900" d="M 8.984375 8.933594 L 7.460938 8.933594 L 7.460938 9.433594 L 8.476562 9.433594 L 8.476562 11.441406 L 9.488281 11.441406 L 9.488281 10.9375 L 8.984375 10.9375 Z M 8.984375 8.933594 " fill-opacity="1" fill-rule="nonzero"/><path fill="#d63900" d="M 12.53125 6.925781 L 13.039062 6.925781 L 13.039062 7.429688 L 12.53125 7.429688 Z M 12.53125 6.925781 " fill-opacity="1" fill-rule="nonzero"/><path fill="#d63900" d="M 11.519531 6.925781 L 10.503906 6.925781 L 10.503906 6.425781 L 9.996094 6.425781 L 9.996094 7.429688 L 11.011719 7.429688 L 11.011719 11.441406 L 12.023438 11.441406 L 12.023438 10.9375 L 11.519531 10.9375 Z M 11.519531 6.925781 " fill-opacity="1" fill-rule="nonzero"/><path fill="#d63900" d="M 14.054688 6.433594 C 14.019531 6.429688 13.984375 6.429688 13.953125 6.4375 C 13.832031 6.460938 13.738281 6.519531 13.660156 6.609375 C 13.585938 6.703125 13.546875 6.808594 13.546875 6.925781 L 13.546875 11.441406 L 14.558594 11.441406 L 14.558594 10.9375 L 14.054688 10.9375 Z M 14.054688 6.433594 " fill-opacity="1" fill-rule="nonzero"/><path fill="#d63900" d="M 17.046875 6.429688 C 16.847656 6.449219 16.707031 6.550781 16.628906 6.730469 L 15.9375 8.332031 L 16.082031 8.664062 Z M 17.046875 6.429688 " fill-opacity="1" fill-rule="nonzero"/><path fill="#d63900" d="M 15.613281 10.132812 L 15.066406 8.867188 L 15.066406 10.539062 L 15.109375 10.632812 C 15.195312 10.835938 15.351562 10.9375 15.574219 10.9375 C 15.796875 10.9375 15.953125 10.835938 16.039062 10.632812 L 16.128906 10.425781 C 16.113281 10.425781 16.097656 10.433594 16.082031 10.433594 C 15.859375 10.433594 15.703125 10.335938 15.613281 10.132812 Z M 15.613281 10.132812 " fill-opacity="1" fill-rule="nonzero"/><path fill="#d63900" d="M 17.09375 8.867188 L 16.585938 10.039062 L 16.585938 11.441406 L 17.601562 11.441406 L 17.601562 10.9375 L 17.09375 10.9375 Z M 17.09375 8.867188 " fill-opacity="1" fill-rule="nonzero"/></svg>