<svg xmlns="http://www.w3.org/2000/svg" xmlns:xlink="http://www.w3.org/1999/xlink" width="50" zoomAndPan="magnify" viewBox="0 0 37.5 37.499999" height="50" preserveAspectRatio="xMidYMid meet" version="1.0"><defs><clipPath id="8094733b0a"><path d="M 0 0 L 37.007812 0 L 37.007812 37.007812 L 0 37.007812 Z M 0 0 " clip-rule="nonzero"/></clipPath><clipPath id="8ae5e3dcc9"><path d="M 4.441406 4.441406 L 32.566406 4.441406 L 32.566406 32.566406 L 4.441406 32.566406 Z M 4.441406 4.441406 " clip-rule="nonzero"/></clipPath></defs><g clip-path="url(#8094733b0a)"><path fill="#ffffff" d="M 0 0 L 37.007812 0 L 37.007812 37.007812 L 0 37.007812 Z M 0 0 " fill-opacity="1" fill-rule="nonzero"/><path fill="#ffffff" d="M 0 0 L 37.007812 0 L 37.007812 37.007812 L 0 37.007812 Z M 0 0 " fill-opacity="1" fill-rule="nonzero"/></g><g clip-path="url(#8ae5e3dcc9)"><path fill="#53c1de" d="M 25.292969 32.566406 C 23.402344 32.566406 21.511719 32.566406 19.621094 32.566406 C 19.257812 32.566406 18.921875 32.503906 18.617188 32.289062 C 18.5625 32.253906 18.441406 32.253906 18.390625 32.292969 C 18.089844 32.5 17.765625 32.566406 17.40625 32.566406 C 13.601562 32.5625 9.792969 32.5625 5.984375 32.5625 C 5.003906 32.5625 4.445312 32.007812 4.441406 31.03125 C 4.441406 27.214844 4.441406 23.398438 4.441406 19.582031 C 4.441406 19.234375 4.511719 18.917969 4.710938 18.625 C 4.75 18.566406 4.746094 18.4375 4.707031 18.378906 C 4.515625 18.09375 4.441406 17.785156 4.441406 17.449219 C 4.445312 13.613281 4.445312 9.777344 4.445312 5.945312 C 4.445312 5.015625 5.011719 4.445312 5.933594 4.445312 C 9.777344 4.441406 13.621094 4.4375 17.464844 4.453125 C 17.765625 4.457031 18.066406 4.625 18.367188 4.703125 C 18.460938 4.726562 18.550781 4.722656 18.640625 4.699219 C 18.9375 4.621094 19.226562 4.457031 19.519531 4.453125 C 23.382812 4.4375 27.242188 4.441406 31.101562 4.445312 C 31.980469 4.445312 32.5625 5.023438 32.5625 5.894531 C 32.566406 9.765625 32.570312 13.636719 32.554688 17.503906 C 32.550781 17.796875 32.378906 18.085938 32.296875 18.378906 C 32.273438 18.457031 32.261719 18.570312 32.300781 18.628906 C 32.492188 18.914062 32.566406 19.222656 32.566406 19.558594 C 32.5625 23.394531 32.5625 27.230469 32.5625 31.0625 C 32.5625 32 31.992188 32.5625 31.046875 32.5625 C 29.128906 32.566406 27.210938 32.566406 25.292969 32.566406 Z M 26.925781 18.953125 C 26.925781 19.210938 26.941406 19.433594 26.921875 19.652344 C 26.90625 19.910156 26.980469 20.09375 27.167969 20.285156 C 28.140625 21.28125 28.078125 22.960938 27.050781 23.894531 C 26.015625 24.835938 24.429688 24.792969 23.472656 23.792969 C 22.5 22.777344 22.53125 21.199219 23.539062 20.195312 C 23.601562 20.132812 23.6875 20.058594 23.691406 19.988281 C 23.707031 19.644531 23.699219 19.300781 23.699219 18.960938 L 18.941406 18.960938 L 18.941406 19.269531 C 18.941406 20.707031 18.941406 22.148438 18.941406 23.585938 C 18.9375 24.21875 18.585938 24.570312 17.949219 24.578125 C 17.734375 24.582031 17.519531 24.5625 17.308594 24.582031 C 16.832031 24.625 16.460938 24.460938 16.125 24.117188 C 15.5 23.476562 14.453125 23.496094 13.820312 24.121094 C 13.167969 24.761719 13.140625 25.78125 13.753906 26.445312 C 14.359375 27.105469 15.421875 27.207031 16.046875 26.574219 C 16.484375 26.136719 16.949219 25.988281 17.527344 26.042969 C 17.632812 26.054688 17.742188 26.042969 17.847656 26.042969 C 18.609375 26.046875 18.941406 26.375 18.941406 27.128906 C 18.941406 28.414062 18.941406 29.703125 18.941406 30.988281 C 18.941406 31.511719 19.109375 31.683594 19.621094 31.683594 C 23.417969 31.683594 27.21875 31.683594 31.015625 31.683594 C 31.515625 31.683594 31.683594 31.507812 31.683594 31.003906 C 31.683594 27.214844 31.683594 23.425781 31.683594 19.632812 C 31.683594 19.113281 31.515625 18.941406 31.003906 18.941406 C 29.742188 18.9375 28.480469 18.9375 27.222656 18.941406 C 27.136719 18.941406 27.050781 18.949219 26.925781 18.953125 Z M 18.054688 18.9375 L 17.78125 18.9375 C 16.316406 18.9375 14.851562 18.941406 13.390625 18.9375 C 12.800781 18.9375 12.445312 18.582031 12.429688 17.992188 C 12.421875 17.789062 12.441406 17.585938 12.425781 17.382812 C 12.378906 16.871094 12.539062 16.472656 12.917969 16.101562 C 13.546875 15.480469 13.5 14.417969 12.871094 13.792969 C 12.253906 13.175781 11.214844 13.152344 10.582031 13.742188 C 9.914062 14.363281 9.800781 15.417969 10.421875 16.03125 C 10.867188 16.472656 11.019531 16.949219 10.964844 17.539062 C 10.953125 17.660156 10.964844 17.785156 10.960938 17.910156 C 10.953125 18.597656 10.613281 18.9375 9.925781 18.9375 C 8.621094 18.941406 7.316406 18.941406 6.011719 18.941406 C 5.496094 18.941406 5.324219 19.109375 5.324219 19.628906 C 5.324219 23.417969 5.324219 27.210938 5.324219 31 C 5.324219 31.515625 5.492188 31.683594 6.011719 31.683594 C 9.804688 31.683594 13.59375 31.683594 17.382812 31.683594 C 17.898438 31.683594 18.066406 31.511719 18.066406 30.992188 C 18.066406 29.875 18.066406 28.753906 18.066406 27.636719 C 18.066406 26.925781 18.066406 26.9375 17.34375 26.921875 C 17.085938 26.917969 16.90625 26.992188 16.714844 27.171875 C 16.078125 27.773438 15.304688 27.984375 14.449219 27.800781 C 13.339844 27.5625 12.574219 26.703125 12.445312 25.589844 C 12.324219 24.53125 12.90625 23.480469 13.878906 23.015625 C 14.875 22.535156 16.019531 22.742188 16.820312 23.546875 C 16.875 23.601562 16.9375 23.683594 17.003906 23.6875 C 17.351562 23.703125 17.703125 23.695312 18.054688 23.695312 Z M 18.957031 10.082031 C 19.261719 10.082031 19.535156 10.097656 19.808594 10.074219 C 19.941406 10.0625 20.101562 10 20.195312 9.910156 C 21.210938 8.90625 22.820312 8.886719 23.816406 9.875 C 24.828125 10.875 24.828125 12.511719 23.816406 13.515625 C 22.824219 14.503906 21.203125 14.484375 20.199219 13.472656 C 20.140625 13.410156 20.066406 13.320312 19.996094 13.316406 C 19.652344 13.300781 19.308594 13.3125 18.960938 13.3125 L 18.960938 18.066406 L 19.292969 18.066406 C 20.730469 18.066406 22.167969 18.066406 23.605469 18.070312 C 24.210938 18.070312 24.566406 18.425781 24.578125 19.027344 C 24.585938 19.257812 24.5625 19.488281 24.582031 19.71875 C 24.625 20.1875 24.457031 20.546875 24.121094 20.878906 C 23.480469 21.507812 23.496094 22.546875 24.117188 23.179688 C 24.757812 23.835938 25.773438 23.871094 26.441406 23.257812 C 27.113281 22.644531 27.207031 21.574219 26.5625 20.941406 C 26.136719 20.523438 25.996094 20.070312 26.042969 19.511719 C 26.054688 19.378906 26.042969 19.246094 26.046875 19.113281 C 26.050781 18.410156 26.390625 18.066406 27.09375 18.066406 C 28.382812 18.066406 29.667969 18.066406 30.957031 18.066406 C 31.527344 18.066406 31.683594 17.910156 31.683594 17.339844 C 31.683594 13.578125 31.683594 9.8125 31.683594 6.050781 C 31.683594 5.476562 31.53125 5.324219 30.957031 5.324219 C 28.871094 5.324219 26.785156 5.324219 24.699219 5.324219 C 22.996094 5.324219 21.289062 5.324219 19.585938 5.324219 C 19.121094 5.324219 18.941406 5.507812 18.941406 5.972656 C 18.9375 7.257812 18.9375 8.546875 18.941406 9.832031 C 18.941406 9.902344 18.949219 9.972656 18.957031 10.082031 Z M 10.082031 18.054688 C 10.082031 17.746094 10.097656 17.46875 10.074219 17.199219 C 10.0625 17.0625 10 16.90625 9.90625 16.8125 C 8.90625 15.796875 8.886719 14.1875 9.878906 13.1875 C 10.878906 12.179688 12.515625 12.179688 13.515625 13.191406 C 14.503906 14.1875 14.484375 15.804688 13.46875 16.808594 C 13.410156 16.867188 13.320312 16.945312 13.316406 17.015625 C 13.300781 17.355469 13.3125 17.699219 13.3125 18.046875 L 18.070312 18.046875 C 18.070312 17.925781 18.070312 17.820312 18.070312 17.714844 C 18.070312 16.277344 18.066406 14.839844 18.070312 13.402344 C 18.070312 12.796875 18.425781 12.441406 19.027344 12.429688 C 19.210938 12.425781 19.402344 12.441406 19.585938 12.425781 C 20.113281 12.378906 20.53125 12.527344 20.917969 12.925781 C 21.535156 13.554688 22.601562 13.496094 23.222656 12.863281 C 23.835938 12.238281 23.851562 11.199219 23.257812 10.570312 C 22.628906 9.90625 21.578125 9.808594 20.964844 10.429688 C 20.539062 10.859375 20.082031 11.023438 19.507812 10.964844 C 19.378906 10.953125 19.242188 10.964844 19.109375 10.960938 C 18.40625 10.957031 18.070312 10.617188 18.066406 9.910156 C 18.066406 8.613281 18.066406 7.320312 18.066406 6.023438 C 18.066406 5.488281 17.902344 5.324219 17.363281 5.324219 C 13.582031 5.324219 9.800781 5.324219 6.023438 5.324219 C 5.488281 5.324219 5.324219 5.488281 5.324219 6.027344 C 5.324219 9.808594 5.324219 13.589844 5.324219 17.371094 C 5.324219 17.902344 5.492188 18.066406 6.027344 18.066406 C 7.28125 18.066406 8.53125 18.066406 9.78125 18.066406 C 9.871094 18.066406 9.957031 18.058594 10.082031 18.054688 Z M 10.082031 18.054688 " fill-opacity="1" fill-rule="nonzero"/></g></svg>