<svg xmlns="http://www.w3.org/2000/svg" xmlns:xlink="http://www.w3.org/1999/xlink" width="50" zoomAndPan="magnify" viewBox="0 0 37.5 37.499999" height="50" preserveAspectRatio="xMidYMid meet" version="1.0"><defs><clipPath id="d2b6383b2d"><path d="M 0 0 L 37.007812 0 L 37.007812 37.007812 L 0 37.007812 Z M 0 0 " clip-rule="nonzero"/></clipPath><clipPath id="588fccd93b"><path d="M 5.324219 4.402344 L 31.96875 4.402344 L 31.96875 32.527344 L 5.324219 32.527344 Z M 5.324219 4.402344 " clip-rule="nonzero"/></clipPath></defs><g clip-path="url(#d2b6383b2d)"><path fill="#ffffff" d="M 0 0 L 37.007812 0 L 37.007812 37.007812 L 0 37.007812 Z M 0 0 " fill-opacity="1" fill-rule="nonzero"/><path fill="#ffffff" d="M 0 0 L 37.007812 0 L 37.007812 37.007812 L 0 37.007812 Z M 0 0 " fill-opacity="1" fill-rule="nonzero"/></g><g clip-path="url(#588fccd93b)"><path fill="#53c1de" d="M 18.496094 9.210938 C 16.128906 9.238281 13.910156 10.179688 12.246094 11.863281 C 10.578125 13.550781 9.664062 15.78125 9.664062 18.148438 C 9.664062 20.832031 10.851562 23.347656 12.921875 25.054688 C 13.574219 25.59375 13.949219 26.390625 13.949219 27.246094 L 13.949219 29.476562 C 13.949219 31.191406 15.34375 32.582031 17.058594 32.582031 L 20.148438 32.582031 C 21.859375 32.582031 23.253906 31.191406 23.253906 29.476562 L 23.253906 27.246094 C 23.253906 26.394531 23.636719 25.589844 24.296875 25.042969 C 26.402344 23.300781 27.582031 20.738281 27.542969 18.011719 C 27.46875 13.097656 23.410156 9.152344 18.496094 9.210938 Z M 20.148438 31.351562 L 17.058594 31.351562 C 16.125 31.351562 15.351562 30.664062 15.207031 29.773438 L 22 29.773438 C 21.855469 30.664062 21.082031 31.351562 20.148438 31.351562 Z M 22.023438 28.539062 L 15.183594 28.539062 L 15.183594 27.859375 L 22.023438 27.859375 Z M 23.511719 24.089844 C 22.726562 24.742188 22.21875 25.644531 22.070312 26.628906 L 15.136719 26.628906 C 14.988281 25.640625 14.484375 24.742188 13.707031 24.101562 C 11.921875 22.628906 10.894531 20.460938 10.894531 18.148438 C 10.894531 13.949219 14.3125 10.492188 18.507812 10.441406 C 18.539062 10.441406 18.570312 10.441406 18.601562 10.441406 C 22.796875 10.441406 26.246094 13.828125 26.308594 18.03125 C 26.34375 20.382812 25.324219 22.589844 23.511719 24.089844 Z M 17.988281 7.328125 L 17.988281 5.027344 C 17.988281 4.6875 18.261719 4.414062 18.601562 4.414062 C 18.945312 4.414062 19.21875 4.6875 19.21875 5.027344 L 19.21875 7.328125 C 19.21875 7.671875 18.945312 7.945312 18.601562 7.945312 C 18.261719 7.945312 17.988281 7.671875 17.988281 7.328125 Z M 23.183594 8.445312 L 24.335938 6.453125 C 24.503906 6.160156 24.882812 6.058594 25.179688 6.230469 C 25.472656 6.398438 25.574219 6.777344 25.402344 7.070312 L 24.253906 9.0625 C 24.140625 9.261719 23.933594 9.371094 23.71875 9.371094 C 23.613281 9.371094 23.507812 9.34375 23.410156 9.289062 C 23.117188 9.117188 23.015625 8.742188 23.183594 8.445312 Z M 29.738281 11.929688 L 27.746094 13.082031 C 27.648438 13.136719 27.542969 13.164062 27.4375 13.164062 C 27.226562 13.164062 27.019531 13.054688 26.902344 12.855469 C 26.734375 12.5625 26.835938 12.183594 27.128906 12.015625 L 29.121094 10.863281 C 29.417969 10.691406 29.792969 10.792969 29.964844 11.089844 C 30.132812 11.382812 30.03125 11.761719 29.738281 11.929688 Z M 31.679688 17.691406 C 31.679688 18.03125 31.402344 18.308594 31.0625 18.308594 L 28.761719 18.308594 C 28.421875 18.308594 28.144531 18.03125 28.144531 17.691406 C 28.144531 17.351562 28.421875 17.074219 28.761719 17.074219 L 31.0625 17.074219 C 31.402344 17.074219 31.679688 17.351562 31.679688 17.691406 Z M 11.773438 6.96875 C 11.605469 6.675781 11.707031 6.296875 12 6.125 C 12.296875 5.957031 12.671875 6.058594 12.84375 6.351562 L 13.992188 8.34375 C 14.164062 8.640625 14.0625 9.015625 13.769531 9.1875 C 13.671875 9.242188 13.566406 9.269531 13.460938 9.269531 C 13.246094 9.269531 13.039062 9.160156 12.925781 8.960938 Z M 9.667969 12.988281 C 9.5625 12.988281 9.457031 12.960938 9.359375 12.90625 L 7.367188 11.753906 C 7.070312 11.585938 6.972656 11.207031 7.140625 10.914062 C 7.3125 10.617188 7.6875 10.515625 7.984375 10.6875 L 9.976562 11.835938 C 10.269531 12.007812 10.371094 12.382812 10.203125 12.679688 C 10.085938 12.878906 9.878906 12.988281 9.667969 12.988281 Z M 8.859375 17.488281 C 8.859375 17.828125 8.582031 18.105469 8.242188 18.105469 L 5.941406 18.105469 C 5.601562 18.105469 5.324219 17.828125 5.324219 17.488281 C 5.324219 17.148438 5.601562 16.871094 5.941406 16.871094 L 8.242188 16.871094 C 8.582031 16.871094 8.859375 17.148438 8.859375 17.488281 Z M 8.859375 17.488281 " fill-opacity="1" fill-rule="nonzero"/></g></svg>