<svg xmlns="http://www.w3.org/2000/svg" xmlns:xlink="http://www.w3.org/1999/xlink" width="50" zoomAndPan="magnify" viewBox="0 0 37.5 37.499999" height="50" preserveAspectRatio="xMidYMid meet" version="1.0"><defs><clipPath id="15478d6557"><path d="M 0 0 L 37.007812 0 L 37.007812 37.007812 L 0 37.007812 Z M 0 0 " clip-rule="nonzero"/></clipPath><clipPath id="e5ccc0c026"><path d="M 19 3.699219 L 33.304688 3.699219 L 33.304688 18 L 19 18 Z M 19 3.699219 " clip-rule="nonzero"/></clipPath><clipPath id="22304d24ad"><path d="M 3.699219 8 L 23 8 L 23 33.304688 L 3.699219 33.304688 Z M 3.699219 8 " clip-rule="nonzero"/></clipPath></defs><g clip-path="url(#15478d6557)"><path fill="#ffffff" d="M 0 0 L 37.007812 0 L 37.007812 37.007812 L 0 37.007812 Z M 0 0 " fill-opacity="1" fill-rule="nonzero"/><path fill="#ffffff" d="M 0 0 L 37.007812 0 L 37.007812 37.007812 L 0 37.007812 Z M 0 0 " fill-opacity="1" fill-rule="nonzero"/></g><path fill="#53c1de" d="M 10.40625 21.046875 C 10.40625 24.113281 12.894531 26.597656 15.957031 26.597656 C 19.023438 26.597656 21.511719 24.113281 21.511719 21.046875 C 21.511719 17.980469 19.023438 15.496094 15.957031 15.496094 C 12.894531 15.496094 10.40625 17.980469 10.40625 21.046875 Z M 21.046875 21.046875 C 21.046875 23.851562 18.765625 26.136719 15.957031 26.136719 C 13.152344 26.136719 10.871094 23.851562 10.871094 21.046875 C 10.871094 18.242188 13.152344 15.960938 15.957031 15.960938 C 18.765625 15.960938 21.046875 18.242188 21.046875 21.046875 Z M 21.046875 21.046875 " fill-opacity="1" fill-rule="nonzero"/><g clip-path="url(#e5ccc0c026)"><path fill="#53c1de" d="M 32.621094 9.484375 L 31.636719 9.484375 C 31.5 8.847656 31.25 8.257812 30.910156 7.730469 L 31.605469 7.035156 C 31.875 6.765625 31.847656 6.308594 31.546875 6.007812 L 31 5.460938 C 30.839844 5.296875 30.628906 5.214844 30.429688 5.214844 C 30.257812 5.214844 30.09375 5.277344 29.972656 5.398438 L 29.277344 6.09375 C 28.746094 5.757812 28.15625 5.507812 27.523438 5.367188 L 27.523438 4.386719 C 27.523438 4.007812 27.179688 3.699219 26.753906 3.699219 L 25.980469 3.699219 C 25.554688 3.699219 25.210938 4.007812 25.210938 4.386719 L 25.210938 5.367188 C 24.578125 5.507812 23.988281 5.757812 23.457031 6.09375 L 22.761719 5.398438 C 22.640625 5.277344 22.476562 5.214844 22.304688 5.214844 C 22.105469 5.214844 21.894531 5.296875 21.734375 5.460938 L 21.1875 6.007812 C 20.886719 6.308594 20.859375 6.765625 21.128906 7.035156 L 21.824219 7.730469 C 21.484375 8.257812 21.234375 8.847656 21.097656 9.484375 L 20.113281 9.484375 C 19.734375 9.484375 19.429688 9.828125 19.429688 10.253906 L 19.429688 11.023438 C 19.429688 11.449219 19.734375 11.796875 20.113281 11.796875 L 21.097656 11.796875 C 21.234375 12.429688 21.484375 13.019531 21.824219 13.546875 L 21.128906 14.242188 C 20.859375 14.511719 20.886719 14.972656 21.1875 15.273438 L 21.734375 15.820312 C 21.894531 15.980469 22.105469 16.0625 22.304688 16.0625 C 22.476562 16.0625 22.640625 16.003906 22.761719 15.878906 L 23.457031 15.183594 C 23.988281 15.523438 24.578125 15.773438 25.210938 15.910156 L 25.210938 16.894531 C 25.210938 17.269531 25.554688 17.578125 25.980469 17.578125 L 26.753906 17.578125 C 27.179688 17.578125 27.523438 17.269531 27.523438 16.894531 L 27.523438 15.910156 C 28.15625 15.773438 28.746094 15.523438 29.277344 15.183594 L 29.972656 15.878906 C 30.09375 16.003906 30.257812 16.0625 30.429688 16.0625 C 30.628906 16.0625 30.839844 15.980469 31 15.820312 L 31.546875 15.273438 C 31.847656 14.972656 31.875 14.511719 31.605469 14.242188 L 30.910156 13.546875 C 31.25 13.019531 31.5 12.429688 31.636719 11.796875 L 32.621094 11.796875 C 33 11.796875 33.304688 11.449219 33.304688 11.023438 L 33.304688 10.253906 C 33.304688 9.828125 33 9.484375 32.621094 9.484375 Z M 32.84375 11.023438 C 32.84375 11.1875 32.738281 11.332031 32.621094 11.332031 L 31.265625 11.332031 L 31.1875 11.695312 C 31.0625 12.265625 30.839844 12.804688 30.523438 13.296875 L 30.320312 13.613281 L 30.585938 13.875 L 31.28125 14.570312 C 31.363281 14.65625 31.335938 14.828125 31.21875 14.945312 L 30.675781 15.492188 C 30.605469 15.5625 30.515625 15.601562 30.429688 15.601562 C 30.390625 15.601562 30.339844 15.59375 30.296875 15.550781 L 29.605469 14.855469 L 29.339844 14.59375 L 29.027344 14.792969 C 28.535156 15.109375 27.996094 15.332031 27.425781 15.457031 L 27.0625 15.539062 L 27.0625 16.894531 C 27.0625 17.011719 26.917969 17.117188 26.753906 17.117188 L 25.980469 17.117188 C 25.816406 17.117188 25.671875 17.011719 25.671875 16.894531 L 25.671875 15.539062 L 25.308594 15.457031 C 24.738281 15.332031 24.199219 15.109375 23.707031 14.792969 L 23.394531 14.59375 L 23.128906 14.855469 L 22.4375 15.550781 C 22.394531 15.59375 22.34375 15.601562 22.304688 15.601562 C 22.21875 15.601562 22.128906 15.5625 22.058594 15.492188 L 21.515625 14.945312 C 21.398438 14.828125 21.367188 14.65625 21.453125 14.570312 L 22.148438 13.875 L 22.414062 13.613281 L 22.210938 13.296875 C 21.894531 12.804688 21.671875 12.265625 21.546875 11.695312 L 21.46875 11.332031 L 20.113281 11.332031 C 19.996094 11.332031 19.890625 11.1875 19.890625 11.023438 L 19.890625 10.253906 C 19.890625 10.089844 19.996094 9.945312 20.113281 9.945312 L 21.46875 9.945312 L 21.546875 9.582031 C 21.671875 9.011719 21.894531 8.472656 22.210938 7.980469 L 22.414062 7.667969 L 21.453125 6.707031 C 21.410156 6.664062 21.402344 6.601562 21.40625 6.558594 C 21.410156 6.480469 21.449219 6.398438 21.515625 6.332031 L 22.058594 5.789062 C 22.128906 5.71875 22.21875 5.679688 22.304688 5.679688 C 22.34375 5.679688 22.394531 5.6875 22.4375 5.726562 L 23.128906 6.421875 L 23.394531 6.683594 L 23.707031 6.484375 C 24.203125 6.167969 24.742188 5.945312 25.308594 5.820312 L 25.671875 5.742188 L 25.671875 4.386719 C 25.671875 4.265625 25.816406 4.164062 25.980469 4.164062 L 26.753906 4.164062 C 26.917969 4.164062 27.0625 4.265625 27.0625 4.386719 L 27.0625 5.742188 L 27.425781 5.820312 C 27.992188 5.945312 28.53125 6.167969 29.027344 6.484375 L 29.339844 6.683594 L 29.605469 6.421875 L 30.296875 5.726562 C 30.339844 5.6875 30.390625 5.679688 30.429688 5.679688 C 30.515625 5.679688 30.605469 5.71875 30.675781 5.785156 L 31.21875 6.332031 C 31.335938 6.449219 31.363281 6.621094 31.28125 6.707031 L 30.320312 7.667969 L 30.523438 7.980469 C 30.839844 8.472656 31.0625 9.011719 31.1875 9.582031 L 31.265625 9.945312 L 32.621094 9.945312 C 32.738281 9.945312 32.84375 10.089844 32.84375 10.253906 Z M 32.84375 11.023438 " fill-opacity="1" fill-rule="nonzero"/></g><path fill="#53c1de" d="M 26.367188 7.402344 C 24.578125 7.402344 23.128906 8.851562 23.128906 10.640625 C 23.128906 12.425781 24.578125 13.878906 26.367188 13.878906 C 28.15625 13.878906 29.605469 12.425781 29.605469 10.640625 C 29.605469 8.851562 28.15625 7.402344 26.367188 7.402344 Z M 26.367188 13.414062 C 24.835938 13.414062 23.589844 12.167969 23.589844 10.640625 C 23.589844 9.109375 24.835938 7.863281 26.367188 7.863281 C 27.898438 7.863281 29.144531 9.109375 29.144531 10.640625 C 29.144531 12.167969 27.898438 13.414062 26.367188 13.414062 Z M 26.367188 13.414062 " fill-opacity="1" fill-rule="nonzero"/><g clip-path="url(#22304d24ad)"><path fill="#53c1de" d="M 21.425781 28.75 L 21.164062 28.484375 L 20.847656 28.6875 C 19.941406 29.269531 18.949219 29.679688 17.902344 29.90625 L 17.539062 29.988281 L 17.539062 32.09375 C 17.539062 32.507812 17.136719 32.84375 16.640625 32.84375 L 15.277344 32.84375 C 14.78125 32.84375 14.378906 32.507812 14.378906 32.09375 L 14.378906 29.988281 L 14.015625 29.90625 C 12.96875 29.679688 11.976562 29.269531 11.070312 28.6875 L 10.757812 28.484375 L 9.265625 29.976562 C 9.109375 30.132812 8.914062 30.167969 8.78125 30.167969 C 8.535156 30.167969 8.289062 30.058594 8.101562 29.871094 L 7.136719 28.90625 C 6.960938 28.730469 6.855469 28.503906 6.839844 28.273438 C 6.828125 28.066406 6.894531 27.875 7.03125 27.742188 L 8.257812 26.515625 L 8.519531 26.25 L 8.320312 25.9375 C 7.738281 25.03125 7.328125 24.039062 7.097656 22.992188 L 7.019531 22.628906 L 4.910156 22.628906 C 4.5 22.628906 4.164062 22.222656 4.164062 21.726562 L 4.164062 20.367188 C 4.164062 19.871094 4.5 19.46875 4.910156 19.46875 L 7.019531 19.46875 L 7.097656 19.101562 C 7.328125 18.054688 7.738281 17.0625 8.320312 16.15625 L 8.519531 15.84375 L 8.257812 15.582031 L 7.03125 14.351562 C 6.894531 14.21875 6.828125 14.03125 6.839844 13.820312 C 6.855469 13.589844 6.960938 13.367188 7.136719 13.1875 L 8.097656 12.226562 C 8.289062 12.035156 8.539062 11.929688 8.78125 11.929688 C 8.914062 11.929688 9.109375 11.960938 9.265625 12.117188 L 10.492188 13.347656 L 10.753906 13.609375 L 11.070312 13.410156 C 11.976562 12.824219 12.96875 12.414062 14.015625 12.1875 L 14.378906 12.109375 L 14.378906 10 C 14.378906 9.585938 14.78125 9.25 15.277344 9.25 L 16.640625 9.25 C 17.136719 9.25 17.539062 9.585938 17.539062 10 L 17.539062 12.109375 L 17.902344 12.1875 C 18.949219 12.414062 19.941406 12.828125 20.847656 13.410156 L 21.128906 13.589844 L 21.242188 13.476562 C 21.144531 13.304688 21.0625 13.128906 20.984375 12.949219 C 20.078125 12.386719 19.074219 11.96875 18.003906 11.734375 L 18.003906 10 C 18.003906 9.332031 17.390625 8.789062 16.640625 8.789062 L 15.277344 8.789062 C 14.527344 8.789062 13.914062 9.332031 13.914062 10 L 13.914062 11.734375 C 12.796875 11.980469 11.753906 12.421875 10.820312 13.019531 L 9.589844 11.789062 C 9.375 11.570312 9.082031 11.464844 8.78125 11.464844 C 8.429688 11.464844 8.058594 11.613281 7.773438 11.898438 L 6.808594 12.859375 C 6.277344 13.394531 6.230469 14.207031 6.703125 14.679688 L 7.929688 15.90625 C 7.332031 16.839844 6.890625 17.886719 6.648438 19.003906 L 4.910156 19.003906 C 4.242188 19.003906 3.699219 19.613281 3.699219 20.367188 L 3.699219 21.726562 C 3.699219 22.480469 4.242188 23.089844 4.910156 23.089844 L 6.648438 23.089844 C 6.890625 24.210938 7.332031 25.253906 7.929688 26.1875 L 6.703125 27.414062 C 6.230469 27.886719 6.277344 28.703125 6.808594 29.234375 L 7.773438 30.199219 C 8.058594 30.484375 8.429688 30.628906 8.78125 30.628906 C 9.082031 30.628906 9.375 30.523438 9.589844 30.304688 L 10.820312 29.074219 C 11.753906 29.675781 12.796875 30.117188 13.914062 30.359375 L 13.914062 32.09375 C 13.914062 32.761719 14.527344 33.304688 15.277344 33.304688 L 16.640625 33.304688 C 17.390625 33.304688 18.003906 32.761719 18.003906 32.09375 L 18.003906 30.359375 C 19.121094 30.117188 20.164062 29.675781 21.097656 29.074219 L 22.253906 30.230469 C 22.195312 30.019531 22.195312 29.796875 22.273438 29.597656 Z M 21.425781 28.75 " fill-opacity="1" fill-rule="nonzero"/></g><path fill="#53c1de" d="M 28.21875 21.726562 L 28.21875 20.367188 C 28.21875 19.613281 27.675781 19.003906 27.007812 19.003906 L 25.269531 19.003906 C 25.039062 17.929688 24.621094 16.925781 24.058594 16.023438 C 23.878906 15.945312 23.703125 15.859375 23.53125 15.765625 L 23.417969 15.878906 L 23.597656 16.15625 C 24.179688 17.066406 24.589844 18.058594 24.820312 19.101562 L 24.898438 19.46875 L 27.007812 19.46875 C 27.417969 19.46875 27.753906 19.871094 27.753906 20.367188 L 27.753906 21.25 C 28.011719 21.429688 28.179688 21.714844 28.179688 22.035156 L 28.179688 22.0625 C 28.203125 21.957031 28.21875 21.84375 28.21875 21.726562 Z M 28.21875 21.726562 " fill-opacity="1" fill-rule="nonzero"/><path fill="#53c1de" d="M 31.625 25.941406 L 30.871094 25.941406 C 30.765625 25.457031 30.574219 25.003906 30.3125 24.601562 L 30.847656 24.066406 C 31.050781 23.863281 31.03125 23.507812 30.800781 23.277344 L 30.382812 22.859375 C 30.257812 22.734375 30.097656 22.671875 29.945312 22.671875 C 29.8125 22.671875 29.6875 22.71875 29.59375 22.8125 L 29.058594 23.34375 C 28.65625 23.085938 28.203125 22.894531 27.714844 22.789062 L 27.714844 22.035156 C 27.714844 21.746094 27.453125 21.511719 27.125 21.511719 L 26.535156 21.511719 C 26.207031 21.511719 25.941406 21.746094 25.941406 22.035156 L 25.941406 22.789062 C 25.457031 22.894531 25.003906 23.085938 24.597656 23.34375 L 24.066406 22.8125 C 23.972656 22.71875 23.847656 22.671875 23.714844 22.671875 C 23.5625 22.671875 23.402344 22.734375 23.277344 22.859375 L 22.859375 23.277344 C 22.628906 23.507812 22.605469 23.863281 22.8125 24.066406 L 23.347656 24.601562 C 23.085938 25.003906 22.894531 25.457031 22.789062 25.941406 L 22.035156 25.941406 C 21.746094 25.941406 21.511719 26.207031 21.511719 26.535156 L 21.511719 27.125 C 21.511719 27.453125 21.746094 27.714844 22.035156 27.714844 L 22.789062 27.714844 C 22.894531 28.203125 23.085938 28.65625 23.347656 29.058594 L 22.8125 29.59375 C 22.605469 29.796875 22.628906 30.152344 22.859375 30.382812 L 23.277344 30.800781 C 23.402344 30.925781 23.5625 30.988281 23.714844 30.988281 C 23.847656 30.988281 23.972656 30.941406 24.066406 30.847656 L 24.597656 30.3125 C 25.003906 30.574219 25.457031 30.765625 25.941406 30.871094 L 25.941406 31.625 C 25.941406 31.914062 26.207031 32.148438 26.535156 32.148438 L 27.125 32.148438 C 27.453125 32.148438 27.714844 31.914062 27.714844 31.625 L 27.714844 30.871094 C 28.203125 30.765625 28.65625 30.574219 29.058594 30.3125 L 29.59375 30.847656 C 29.6875 30.941406 29.8125 30.988281 29.945312 30.988281 C 30.097656 30.988281 30.257812 30.925781 30.382812 30.800781 L 30.800781 30.382812 C 31.03125 30.152344 31.050781 29.796875 30.847656 29.59375 L 30.3125 29.058594 C 30.574219 28.65625 30.765625 28.203125 30.871094 27.714844 L 31.625 27.714844 C 31.914062 27.714844 32.148438 27.453125 32.148438 27.125 L 32.148438 26.535156 C 32.148438 26.207031 31.914062 25.941406 31.625 25.941406 Z M 31.917969 27.125 C 31.917969 27.324219 31.785156 27.484375 31.625 27.484375 L 30.683594 27.484375 L 30.644531 27.667969 C 30.546875 28.117188 30.371094 28.542969 30.117188 28.933594 L 30.019531 29.09375 L 30.152344 29.222656 L 30.683594 29.757812 C 30.796875 29.871094 30.777344 30.078125 30.636719 30.21875 L 30.21875 30.636719 C 30.144531 30.714844 30.042969 30.757812 29.945312 30.757812 C 29.894531 30.757812 29.816406 30.742188 29.757812 30.683594 L 29.09375 30.019531 L 28.933594 30.117188 C 28.542969 30.371094 28.117188 30.546875 27.667969 30.644531 L 27.484375 30.683594 L 27.484375 31.625 C 27.484375 31.785156 27.324219 31.917969 27.125 31.917969 L 26.535156 31.917969 C 26.335938 31.917969 26.175781 31.785156 26.175781 31.625 L 26.175781 30.683594 L 25.992188 30.644531 C 25.542969 30.546875 25.113281 30.371094 24.722656 30.117188 L 24.566406 30.019531 L 23.902344 30.683594 C 23.84375 30.742188 23.765625 30.757812 23.714844 30.757812 C 23.617188 30.757812 23.515625 30.714844 23.441406 30.636719 L 23.023438 30.21875 C 22.882812 30.078125 22.859375 29.871094 22.976562 29.757812 L 23.507812 29.222656 L 23.640625 29.09375 L 23.539062 28.933594 C 23.289062 28.542969 23.113281 28.117188 23.015625 27.667969 L 22.976562 27.484375 L 22.035156 27.484375 C 21.875 27.484375 21.742188 27.324219 21.742188 27.125 L 21.742188 26.535156 C 21.742188 26.335938 21.875 26.175781 22.035156 26.175781 L 22.976562 26.175781 L 23.015625 25.992188 C 23.113281 25.542969 23.289062 25.117188 23.539062 24.726562 L 23.640625 24.566406 L 23.507812 24.4375 L 22.976562 23.902344 C 22.925781 23.851562 22.898438 23.777344 22.902344 23.695312 C 22.910156 23.601562 22.949219 23.511719 23.023438 23.441406 L 23.441406 23.023438 C 23.515625 22.945312 23.617188 22.902344 23.714844 22.902344 C 23.765625 22.902344 23.84375 22.914062 23.902344 22.976562 L 24.4375 23.507812 L 24.566406 23.640625 L 24.722656 23.539062 C 25.117188 23.289062 25.542969 23.113281 25.992188 23.015625 L 26.175781 22.976562 L 26.175781 22.035156 C 26.175781 21.875 26.335938 21.742188 26.535156 21.742188 L 27.125 21.742188 C 27.324219 21.742188 27.484375 21.875 27.484375 22.035156 L 27.484375 22.976562 L 27.667969 23.015625 C 28.117188 23.113281 28.542969 23.289062 28.9375 23.539062 L 29.09375 23.640625 L 29.222656 23.507812 L 29.757812 22.976562 C 29.816406 22.914062 29.894531 22.902344 29.945312 22.902344 C 30.042969 22.902344 30.144531 22.945312 30.21875 23.023438 L 30.636719 23.441406 C 30.777344 23.582031 30.796875 23.789062 30.683594 23.902344 L 30.152344 24.4375 L 30.019531 24.566406 L 30.121094 24.726562 C 30.371094 25.113281 30.546875 25.542969 30.644531 25.992188 L 30.683594 26.175781 L 31.625 26.175781 C 31.785156 26.175781 31.917969 26.335938 31.917969 26.535156 Z M 31.917969 27.125 " fill-opacity="1" fill-rule="nonzero"/><path fill="#53c1de" d="M 26.828125 24.515625 C 25.550781 24.515625 24.515625 25.550781 24.515625 26.828125 C 24.515625 28.105469 25.550781 29.144531 26.828125 29.144531 C 28.105469 29.144531 29.144531 28.105469 29.144531 26.828125 C 29.144531 25.550781 28.105469 24.515625 26.828125 24.515625 Z M 26.828125 28.910156 C 25.683594 28.910156 24.75 27.976562 24.75 26.828125 C 24.75 25.683594 25.683594 24.75 26.828125 24.75 C 27.976562 24.75 28.910156 25.683594 28.910156 26.828125 C 28.910156 27.976562 27.976562 28.910156 26.828125 28.910156 Z M 26.828125 28.910156 " fill-opacity="1" fill-rule="nonzero"/></svg>