<svg xmlns="http://www.w3.org/2000/svg" xmlns:xlink="http://www.w3.org/1999/xlink" width="50" zoomAndPan="magnify" viewBox="0 0 37.5 37.499999" height="50" preserveAspectRatio="xMidYMid meet" version="1.0"><defs><clipPath id="4b95fc0451"><path d="M 0 0 L 37.007812 0 L 37.007812 37.007812 L 0 37.007812 Z M 0 0 " clip-rule="nonzero"/></clipPath></defs><g clip-path="url(#4b95fc0451)"><path fill="#eee400" d="M 28.363281 34.105469 C 25.132812 34.105469 23.046875 32.566406 22.027344 30.550781 L 24.859375 28.914062 C 25.605469 30.128906 26.570312 31.023438 28.285156 31.023438 C 29.726562 31.023438 30.644531 30.304688 30.644531 29.308594 C 30.644531 27.816406 28.652344 27.230469 27.242188 26.628906 C 24.734375 25.558594 23.070312 24.21875 23.070312 21.386719 C 23.070312 18.777344 25.054688 16.792969 28.164062 16.792969 C 30.371094 16.792969 31.964844 17.5625 33.105469 19.570312 L 30.398438 21.3125 C 29.800781 20.242188 29.15625 19.820312 28.164062 19.820312 C 27.144531 19.820312 26.496094 20.46875 26.496094 21.3125 C 26.496094 22.355469 27.144531 22.777344 28.632812 23.421875 C 31.757812 24.761719 34.125 25.816406 34.125 29.261719 C 34.125 32.390625 31.667969 34.105469 28.363281 34.105469 Z M 20.355469 28.863281 C 20.355469 32.464844 18.132812 34.371094 15.054688 34.371094 C 12.269531 34.371094 10.605469 33.304688 9.785156 31.457031 L 9.738281 31.457031 L 12.566406 29.476562 C 13.113281 30.445312 13.605469 31.132812 14.796875 31.132812 C 15.9375 31.132812 16.652344 30.554688 16.652344 28.816406 L 16.652344 16.652344 L 20.355469 16.652344 Z M 0 37.007812 L 37.007812 37.007812 L 37.007812 0 L 0 0 Z M 0 37.007812 " fill-opacity="1" fill-rule="evenodd"/></g></svg>