<svg xmlns="http://www.w3.org/2000/svg" xmlns:xlink="http://www.w3.org/1999/xlink" width="50" zoomAndPan="magnify" viewBox="0 0 37.5 37.499999" height="50" preserveAspectRatio="xMidYMid meet" version="1.0"><defs><clipPath id="436ec9d70d"><path d="M 1.011719 3 L 35.796875 3 L 35.796875 34 L 1.011719 34 Z M 1.011719 3 " clip-rule="nonzero"/></clipPath></defs><path fill="#53c1de" d="M 21.511719 18.425781 C 21.511719 16.757812 20.121094 15.40625 18.40625 15.40625 C 16.691406 15.40625 15.300781 16.757812 15.300781 18.425781 C 15.300781 20.09375 16.691406 21.445312 18.40625 21.445312 C 20.121094 21.445312 21.511719 20.09375 21.511719 18.425781 Z M 21.511719 18.425781 " fill-opacity="1" fill-rule="nonzero"/><g clip-path="url(#436ec9d70d)"><path fill="#53c1de" d="M 28.492188 12.820312 C 29.148438 10.230469 29.972656 5.425781 27.066406 3.796875 C 24.175781 2.175781 20.410156 5.28125 18.421875 7.148438 C 16.4375 5.300781 12.570312 2.207031 9.664062 3.839844 C 6.773438 5.46875 7.664062 10.191406 8.335938 12.800781 C 5.636719 13.542969 1.011719 15.148438 1.011719 18.425781 C 1.011719 21.695312 5.632812 23.4375 8.3125 24.183594 C 7.640625 26.804688 6.792969 31.460938 9.691406 33.085938 C 12.605469 34.71875 16.464844 31.699219 18.46875 29.8125 C 20.46875 31.691406 24.199219 34.730469 27.09375 33.101562 C 29.996094 31.46875 29.238281 26.730469 28.570312 24.105469 C 31.167969 23.359375 35.796875 21.652344 35.796875 18.425781 C 35.796875 15.179688 31.148438 13.5625 28.492188 12.820312 Z M 28.164062 22.714844 C 27.722656 21.363281 27.128906 19.921875 26.402344 18.433594 C 27.097656 16.980469 27.667969 15.558594 28.097656 14.210938 C 30.042969 14.761719 34.3125 16.015625 34.3125 18.425781 C 34.3125 20.859375 30.214844 22.125 28.164062 22.714844 Z M 26.347656 31.851562 C 24.1875 33.066406 20.980469 30.160156 19.503906 28.777344 C 20.484375 27.734375 21.464844 26.523438 22.421875 25.179688 C 24.101562 25.035156 25.691406 24.796875 27.132812 24.472656 C 27.605469 26.328125 28.515625 30.632812 26.347656 31.851562 Z M 10.433594 31.835938 C 8.273438 30.625 9.257812 26.46875 9.753906 24.539062 C 11.179688 24.84375 12.757812 25.0625 14.441406 25.195312 C 15.40625 26.511719 16.414062 27.722656 17.429688 28.78125 C 16.171875 29.960938 12.601562 33.050781 10.433594 31.835938 Z M 2.5 18.425781 C 2.5 15.984375 6.742188 14.738281 8.734375 14.191406 C 9.167969 15.566406 9.738281 17.007812 10.429688 18.460938 C 9.730469 19.9375 9.152344 21.398438 8.710938 22.792969 C 6.8125 22.265625 2.5 20.871094 2.5 18.425781 Z M 10.410156 5.089844 C 12.578125 3.871094 15.941406 6.839844 17.378906 8.179688 C 16.371094 9.234375 15.371094 10.433594 14.417969 11.742188 C 12.78125 11.890625 11.214844 12.128906 9.773438 12.445312 C 9.234375 10.339844 8.242188 6.308594 10.410156 5.089844 Z M 23.484375 13.3125 C 24.59375 13.449219 25.65625 13.628906 26.65625 13.851562 C 26.355469 14.785156 25.980469 15.761719 25.542969 16.761719 C 24.902344 15.585938 24.21875 14.433594 23.484375 13.3125 Z M 18.421875 9.210938 C 19.109375 9.933594 19.792969 10.738281 20.46875 11.613281 C 19.097656 11.550781 17.726562 11.550781 16.359375 11.613281 C 17.035156 10.746094 17.726562 9.941406 18.421875 9.210938 Z M 11.28125 16.761719 C 10.847656 15.765625 10.480469 14.785156 10.175781 13.835938 C 11.167969 13.621094 12.226562 13.445312 13.332031 13.308594 C 12.59375 14.429688 11.910156 15.582031 11.28125 16.761719 Z M 13.363281 23.644531 C 12.222656 23.519531 11.148438 23.355469 10.15625 23.144531 C 10.464844 22.179688 10.839844 21.179688 11.285156 20.160156 C 11.917969 21.351562 12.613281 22.515625 13.363281 23.644531 Z M 18.464844 27.742188 C 17.757812 27.003906 17.054688 26.1875 16.371094 25.308594 C 17.746094 25.363281 19.128906 25.363281 20.503906 25.300781 C 19.828125 26.195312 19.144531 27.015625 18.464844 27.742188 Z M 25.554688 20.105469 C 26.019531 21.136719 26.414062 22.132812 26.722656 23.082031 C 25.714844 23.304688 24.625 23.484375 23.480469 23.621094 C 24.21875 22.476562 24.917969 21.304688 25.554688 20.105469 Z M 21.589844 23.792969 C 19.484375 23.941406 17.363281 23.9375 15.257812 23.804688 C 14.058594 22.105469 12.992188 20.316406 12.070312 18.460938 C 12.988281 16.609375 14.046875 14.824219 15.238281 13.125 C 17.347656 12.96875 19.46875 12.96875 21.578125 13.125 C 22.761719 14.824219 23.816406 16.605469 24.753906 18.441406 C 23.828125 20.292969 22.765625 22.082031 21.589844 23.792969 Z M 26.324219 5.046875 C 28.496094 6.261719 27.527344 10.582031 27.054688 12.460938 C 25.613281 12.136719 24.042969 11.894531 22.402344 11.746094 C 21.449219 10.421875 20.457031 9.21875 19.464844 8.179688 C 20.921875 6.8125 24.179688 3.84375 26.324219 5.046875 Z M 26.324219 5.046875 " fill-opacity="1" fill-rule="evenodd"/></g></svg>